%TF.GenerationSoftware,KiCad,Pcbnew,8.0.2*%
%TF.CreationDate,2024-06-25T23:30:36+07:00*%
%TF.ProjectId,capacitor,63617061-6369-4746-9f72-2e6b69636164,rev?*%
%TF.SameCoordinates,Original*%
%TF.FileFunction,Copper,L1,Top*%
%TF.FilePolarity,Positive*%
%FSLAX46Y46*%
G04 Gerber Fmt 4.6, Leading zero omitted, Abs format (unit mm)*
G04 Created by KiCad (PCBNEW 8.0.2) date 2024-06-25 23:30:36*
%MOMM*%
%LPD*%
G01*
G04 APERTURE LIST*
G04 Aperture macros list*
%AMRoundRect*
0 Rectangle with rounded corners*
0 $1 Rounding radius*
0 $2 $3 $4 $5 $6 $7 $8 $9 X,Y pos of 4 corners*
0 Add a 4 corners polygon primitive as box body*
4,1,4,$2,$3,$4,$5,$6,$7,$8,$9,$2,$3,0*
0 Add four circle primitives for the rounded corners*
1,1,$1+$1,$2,$3*
1,1,$1+$1,$4,$5*
1,1,$1+$1,$6,$7*
1,1,$1+$1,$8,$9*
0 Add four rect primitives between the rounded corners*
20,1,$1+$1,$2,$3,$4,$5,0*
20,1,$1+$1,$4,$5,$6,$7,0*
20,1,$1+$1,$6,$7,$8,$9,0*
20,1,$1+$1,$8,$9,$2,$3,0*%
G04 Aperture macros list end*
%TA.AperFunction,SMDPad,CuDef*%
%ADD10RoundRect,0.250000X-0.650000X0.325000X-0.650000X-0.325000X0.650000X-0.325000X0.650000X0.325000X0*%
%TD*%
%TA.AperFunction,ComponentPad*%
%ADD11C,4.000000*%
%TD*%
%TA.AperFunction,Conductor*%
%ADD12C,1.000000*%
%TD*%
G04 APERTURE END LIST*
D10*
%TO.P,C1,1*%
%TO.N,Net-(J1-Pin_1)*%
X153900000Y-84825000D03*
%TO.P,C1,2*%
%TO.N,Net-(J2-Pin_1)*%
X153900000Y-87775000D03*
%TD*%
D11*
%TO.P,J1,1,Pin_1*%
%TO.N,Net-(J1-Pin_1)*%
X153900000Y-73800000D03*
%TD*%
%TO.P,J2,1,Pin_1*%
%TO.N,Net-(J2-Pin_1)*%
X153900000Y-98800000D03*
%TD*%
D12*
%TO.N,Net-(J2-Pin_1)*%
X153900000Y-87775000D02*
X153900000Y-98800000D01*
%TO.N,Net-(J1-Pin_1)*%
X153900000Y-84825000D02*
X153900000Y-73800000D01*
X153900000Y-84728750D02*
X153996250Y-84825000D01*
%TD*%
%TA.AperFunction,Conductor*%
%TO.N,Net-(J1-Pin_1)*%
G36*
X155806485Y-74359787D02*
G01*
X155813454Y-74365409D01*
X155814406Y-74374313D01*
X155813987Y-74375499D01*
X154402996Y-77772431D01*
X154396658Y-77778757D01*
X154392191Y-77779643D01*
X153407809Y-77779643D01*
X153399536Y-77776216D01*
X153397004Y-77772431D01*
X151986011Y-74375497D01*
X151986003Y-74366544D01*
X151992329Y-74360206D01*
X151993500Y-74359792D01*
X153896699Y-73799971D01*
X153903301Y-73799971D01*
X155806485Y-74359787D01*
G37*
%TD.AperFunction*%
%TD*%
%TA.AperFunction,Conductor*%
%TO.N,Net-(J2-Pin_1)*%
G36*
X154400464Y-94823784D02*
G01*
X154402996Y-94827569D01*
X155813987Y-98224500D01*
X155813996Y-98233455D01*
X155807670Y-98239793D01*
X155806484Y-98240212D01*
X153903302Y-98800028D01*
X153896698Y-98800028D01*
X151993515Y-98240212D01*
X151986545Y-98234590D01*
X151985593Y-98225686D01*
X151986006Y-98224516D01*
X153397004Y-94827568D01*
X153403342Y-94821243D01*
X153407809Y-94820357D01*
X154392191Y-94820357D01*
X154400464Y-94823784D01*
G37*
%TD.AperFunction*%
%TD*%
%TA.AperFunction,Conductor*%
%TO.N,Net-(J2-Pin_1)*%
G36*
X154400464Y-94823784D02*
G01*
X154402996Y-94827569D01*
X155813987Y-98224500D01*
X155813996Y-98233455D01*
X155807670Y-98239793D01*
X155806484Y-98240212D01*
X153903302Y-98800028D01*
X153896698Y-98800028D01*
X151993515Y-98240212D01*
X151986545Y-98234590D01*
X151985593Y-98225686D01*
X151986006Y-98224516D01*
X153397004Y-94827568D01*
X153403342Y-94821243D01*
X153407809Y-94820357D01*
X154392191Y-94820357D01*
X154400464Y-94823784D01*
G37*
%TD.AperFunction*%
%TD*%
M02*
