%TF.GenerationSoftware,KiCad,Pcbnew,8.0.2*%
%TF.CreationDate,2024-06-25T23:30:36+07:00*%
%TF.ProjectId,capacitor,63617061-6369-4746-9f72-2e6b69636164,rev?*%
%TF.SameCoordinates,Original*%
%TF.FileFunction,Legend,Top*%
%TF.FilePolarity,Positive*%
%FSLAX46Y46*%
G04 Gerber Fmt 4.6, Leading zero omitted, Abs format (unit mm)*
G04 Created by KiCad (PCBNEW 8.0.2) date 2024-06-25 23:30:36*
%MOMM*%
%LPD*%
G01*
G04 APERTURE LIST*
G04 Aperture macros list*
%AMRoundRect*
0 Rectangle with rounded corners*
0 $1 Rounding radius*
0 $2 $3 $4 $5 $6 $7 $8 $9 X,Y pos of 4 corners*
0 Add a 4 corners polygon primitive as box body*
4,1,4,$2,$3,$4,$5,$6,$7,$8,$9,$2,$3,0*
0 Add four circle primitives for the rounded corners*
1,1,$1+$1,$2,$3*
1,1,$1+$1,$4,$5*
1,1,$1+$1,$6,$7*
1,1,$1+$1,$8,$9*
0 Add four rect primitives between the rounded corners*
20,1,$1+$1,$2,$3,$4,$5,0*
20,1,$1+$1,$4,$5,$6,$7,0*
20,1,$1+$1,$6,$7,$8,$9,0*
20,1,$1+$1,$8,$9,$2,$3,0*%
G04 Aperture macros list end*
%ADD10C,1.000000*%
%ADD11C,0.250000*%
%ADD12C,0.120000*%
%ADD13RoundRect,0.250000X-0.650000X0.325000X-0.650000X-0.325000X0.650000X-0.325000X0.650000X0.325000X0*%
%ADD14C,4.000000*%
G04 APERTURE END LIST*
D10*
X156400000Y-98800000D02*
G75*
G02*
X151400000Y-98800000I-2500000J0D01*
G01*
X151400000Y-98800000D02*
G75*
G02*
X156400000Y-98800000I2500000J0D01*
G01*
X156400000Y-73800000D02*
G75*
G02*
X151400000Y-73800000I-2500000J0D01*
G01*
X151400000Y-73800000D02*
G75*
G02*
X156400000Y-73800000I2500000J0D01*
G01*
D11*
X157749678Y-88003383D02*
X157749678Y-88860526D01*
X157749678Y-88431955D02*
X156249678Y-88431955D01*
X156249678Y-88431955D02*
X156463964Y-88574812D01*
X156463964Y-88574812D02*
X156606821Y-88717669D01*
X156606821Y-88717669D02*
X156678250Y-88860526D01*
X156249678Y-87074812D02*
X156249678Y-86931955D01*
X156249678Y-86931955D02*
X156321107Y-86789098D01*
X156321107Y-86789098D02*
X156392535Y-86717670D01*
X156392535Y-86717670D02*
X156535392Y-86646241D01*
X156535392Y-86646241D02*
X156821107Y-86574812D01*
X156821107Y-86574812D02*
X157178250Y-86574812D01*
X157178250Y-86574812D02*
X157463964Y-86646241D01*
X157463964Y-86646241D02*
X157606821Y-86717670D01*
X157606821Y-86717670D02*
X157678250Y-86789098D01*
X157678250Y-86789098D02*
X157749678Y-86931955D01*
X157749678Y-86931955D02*
X157749678Y-87074812D01*
X157749678Y-87074812D02*
X157678250Y-87217670D01*
X157678250Y-87217670D02*
X157606821Y-87289098D01*
X157606821Y-87289098D02*
X157463964Y-87360527D01*
X157463964Y-87360527D02*
X157178250Y-87431955D01*
X157178250Y-87431955D02*
X156821107Y-87431955D01*
X156821107Y-87431955D02*
X156535392Y-87360527D01*
X156535392Y-87360527D02*
X156392535Y-87289098D01*
X156392535Y-87289098D02*
X156321107Y-87217670D01*
X156321107Y-87217670D02*
X156249678Y-87074812D01*
X156249678Y-85646241D02*
X156249678Y-85503384D01*
X156249678Y-85503384D02*
X156321107Y-85360527D01*
X156321107Y-85360527D02*
X156392535Y-85289099D01*
X156392535Y-85289099D02*
X156535392Y-85217670D01*
X156535392Y-85217670D02*
X156821107Y-85146241D01*
X156821107Y-85146241D02*
X157178250Y-85146241D01*
X157178250Y-85146241D02*
X157463964Y-85217670D01*
X157463964Y-85217670D02*
X157606821Y-85289099D01*
X157606821Y-85289099D02*
X157678250Y-85360527D01*
X157678250Y-85360527D02*
X157749678Y-85503384D01*
X157749678Y-85503384D02*
X157749678Y-85646241D01*
X157749678Y-85646241D02*
X157678250Y-85789099D01*
X157678250Y-85789099D02*
X157606821Y-85860527D01*
X157606821Y-85860527D02*
X157463964Y-85931956D01*
X157463964Y-85931956D02*
X157178250Y-86003384D01*
X157178250Y-86003384D02*
X156821107Y-86003384D01*
X156821107Y-86003384D02*
X156535392Y-85931956D01*
X156535392Y-85931956D02*
X156392535Y-85860527D01*
X156392535Y-85860527D02*
X156321107Y-85789099D01*
X156321107Y-85789099D02*
X156249678Y-85646241D01*
X156249678Y-84717670D02*
X157749678Y-84217670D01*
X157749678Y-84217670D02*
X156249678Y-83717670D01*
X150224678Y-88824812D02*
X150224678Y-88681955D01*
X150224678Y-88681955D02*
X150296107Y-88539098D01*
X150296107Y-88539098D02*
X150367535Y-88467670D01*
X150367535Y-88467670D02*
X150510392Y-88396241D01*
X150510392Y-88396241D02*
X150796107Y-88324812D01*
X150796107Y-88324812D02*
X151153250Y-88324812D01*
X151153250Y-88324812D02*
X151438964Y-88396241D01*
X151438964Y-88396241D02*
X151581821Y-88467670D01*
X151581821Y-88467670D02*
X151653250Y-88539098D01*
X151653250Y-88539098D02*
X151724678Y-88681955D01*
X151724678Y-88681955D02*
X151724678Y-88824812D01*
X151724678Y-88824812D02*
X151653250Y-88967670D01*
X151653250Y-88967670D02*
X151581821Y-89039098D01*
X151581821Y-89039098D02*
X151438964Y-89110527D01*
X151438964Y-89110527D02*
X151153250Y-89181955D01*
X151153250Y-89181955D02*
X150796107Y-89181955D01*
X150796107Y-89181955D02*
X150510392Y-89110527D01*
X150510392Y-89110527D02*
X150367535Y-89039098D01*
X150367535Y-89039098D02*
X150296107Y-88967670D01*
X150296107Y-88967670D02*
X150224678Y-88824812D01*
X151581821Y-87681956D02*
X151653250Y-87610527D01*
X151653250Y-87610527D02*
X151724678Y-87681956D01*
X151724678Y-87681956D02*
X151653250Y-87753384D01*
X151653250Y-87753384D02*
X151581821Y-87681956D01*
X151581821Y-87681956D02*
X151724678Y-87681956D01*
X151724678Y-86181955D02*
X151724678Y-87039098D01*
X151724678Y-86610527D02*
X150224678Y-86610527D01*
X150224678Y-86610527D02*
X150438964Y-86753384D01*
X150438964Y-86753384D02*
X150581821Y-86896241D01*
X150581821Y-86896241D02*
X150653250Y-87039098D01*
X150724678Y-84896242D02*
X151724678Y-84896242D01*
X150724678Y-85539099D02*
X151510392Y-85539099D01*
X151510392Y-85539099D02*
X151653250Y-85467670D01*
X151653250Y-85467670D02*
X151724678Y-85324813D01*
X151724678Y-85324813D02*
X151724678Y-85110527D01*
X151724678Y-85110527D02*
X151653250Y-84967670D01*
X151653250Y-84967670D02*
X151581821Y-84896242D01*
X150938964Y-83681956D02*
X150938964Y-84181956D01*
X151724678Y-84181956D02*
X150224678Y-84181956D01*
X150224678Y-84181956D02*
X150224678Y-83467670D01*
D12*
%TO.C,C1*%
X152990000Y-85588748D02*
X152990000Y-87011252D01*
X154810000Y-85588748D02*
X154810000Y-87011252D01*
%TD*%
%LPC*%
D13*
%TO.C,C1*%
X153900000Y-84825000D03*
X153900000Y-87775000D03*
%TD*%
D14*
%TO.C,J1*%
X153900000Y-73800000D03*
%TD*%
%TO.C,J2*%
X153900000Y-98800000D03*
%TD*%
%LPD*%
M02*
